<svg xmlns="http://www.w3.org/2000/svg" width="920" height="520" viewBox="0 0 920 520" role="img" aria-labelledby="title desc">
<title id="title">Monthly Sales Trend</title>
<desc id="desc">Bar chart of cleaned Superstore sales by month.</desc>
<rect width="100%" height="100%" fill="#ffffff"/>
<text x="40" y="46" font-family="Inter, Segoe UI, Arial, sans-serif" font-size="24" font-weight="700" fill="#1f2933">Monthly Sales Trend</text>
<text x="40" y="74" font-family="Inter, Segoe UI, Arial, sans-serif" font-size="13" fill="#52616b">Cleaned Superstore records, grouped by order month</text>
<line x1="80" y1="434.0" x2="880" y2="434.0" stroke="#e5e7eb" stroke-width="1"/>
<text x="68" y="438.0" text-anchor="end" font-family="Inter, Segoe UI, Arial, sans-serif" font-size="12" fill="#64748b">$0</text>
<line x1="80" y1="349.5" x2="880" y2="349.5" stroke="#e5e7eb" stroke-width="1"/>
<text x="68" y="353.5" text-anchor="end" font-family="Inter, Segoe UI, Arial, sans-serif" font-size="12" fill="#64748b">$15,000</text>
<line x1="80" y1="265.0" x2="880" y2="265.0" stroke="#e5e7eb" stroke-width="1"/>
<text x="68" y="269.0" text-anchor="end" font-family="Inter, Segoe UI, Arial, sans-serif" font-size="12" fill="#64748b">$30,000</text>
<line x1="80" y1="180.5" x2="880" y2="180.5" stroke="#e5e7eb" stroke-width="1"/>
<text x="68" y="184.5" text-anchor="end" font-family="Inter, Segoe UI, Arial, sans-serif" font-size="12" fill="#64748b">$45,000</text>
<line x1="80" y1="96.0" x2="880" y2="96.0" stroke="#e5e7eb" stroke-width="1"/>
<text x="68" y="100.0" text-anchor="end" font-family="Inter, Segoe UI, Arial, sans-serif" font-size="12" fill="#64748b">$60,000</text>
<line x1="80" y1="434" x2="880" y2="434" stroke="#334155" stroke-width="1.2"/>
<rect x="80.0" y="353.9" width="52.0" height="80.1" rx="3" fill="#5d8aa8"/>
<text x="106.0" y="460" text-anchor="middle" font-family="Inter, Segoe UI, Arial, sans-serif" font-size="12" fill="#334155">Jan</text>
<rect x="148.0" y="354.8" width="52.0" height="79.2" rx="3" fill="#5d8aa8"/>
<text x="174.0" y="460" text-anchor="middle" font-family="Inter, Segoe UI, Arial, sans-serif" font-size="12" fill="#334155">Feb</text>
<rect x="216.0" y="281.6" width="52.0" height="152.4" rx="3" fill="#5d8aa8"/>
<text x="242.0" y="460" text-anchor="middle" font-family="Inter, Segoe UI, Arial, sans-serif" font-size="12" fill="#334155">Mar</text>
<rect x="284.0" y="286.6" width="52.0" height="147.4" rx="3" fill="#5d8aa8"/>
<text x="310.0" y="460" text-anchor="middle" font-family="Inter, Segoe UI, Arial, sans-serif" font-size="12" fill="#334155">Apr</text>
<rect x="352.0" y="255.9" width="52.0" height="178.1" rx="3" fill="#5d8aa8"/>
<text x="378.0" y="460" text-anchor="middle" font-family="Inter, Segoe UI, Arial, sans-serif" font-size="12" fill="#334155">May</text>
<rect x="420.0" y="271.8" width="52.0" height="162.2" rx="3" fill="#5d8aa8"/>
<text x="446.0" y="460" text-anchor="middle" font-family="Inter, Segoe UI, Arial, sans-serif" font-size="12" fill="#334155">Jun</text>
<rect x="488.0" y="266.1" width="52.0" height="167.9" rx="3" fill="#5d8aa8"/>
<text x="514.0" y="460" text-anchor="middle" font-family="Inter, Segoe UI, Arial, sans-serif" font-size="12" fill="#334155">Jul</text>
<rect x="556.0" y="272.9" width="52.0" height="161.1" rx="3" fill="#5d8aa8"/>
<text x="582.0" y="460" text-anchor="middle" font-family="Inter, Segoe UI, Arial, sans-serif" font-size="12" fill="#334155">Aug</text>
<rect x="624.0" y="131.2" width="52.0" height="302.8" rx="3" fill="#5d8aa8"/>
<text x="650.0" y="460" text-anchor="middle" font-family="Inter, Segoe UI, Arial, sans-serif" font-size="12" fill="#334155">Sep</text>
<text x="650.0" y="123.2" text-anchor="middle" font-family="Inter, Segoe UI, Arial, sans-serif" font-size="11" font-weight="600" fill="#334155">$53,745</text>
<rect x="692.0" y="255.7" width="52.0" height="178.3" rx="3" fill="#5d8aa8"/>
<text x="718.0" y="460" text-anchor="middle" font-family="Inter, Segoe UI, Arial, sans-serif" font-size="12" fill="#334155">Oct</text>
<rect x="760.0" y="110.3" width="52.0" height="323.7" rx="3" fill="#5d8aa8"/>
<text x="786.0" y="460" text-anchor="middle" font-family="Inter, Segoe UI, Arial, sans-serif" font-size="12" fill="#334155">Nov</text>
<text x="786.0" y="102.3" text-anchor="middle" font-family="Inter, Segoe UI, Arial, sans-serif" font-size="11" font-weight="600" fill="#334155">$57,467</text>
<rect x="828.0" y="102.3" width="52.0" height="331.7" rx="3" fill="#1f5d73"/>
<text x="854.0" y="460" text-anchor="middle" font-family="Inter, Segoe UI, Arial, sans-serif" font-size="12" fill="#334155">Dec</text>
<text x="854.0" y="94.3" text-anchor="middle" font-family="Inter, Segoe UI, Arial, sans-serif" font-size="11" font-weight="600" fill="#334155">$58,888</text>
<text x="40" y="490" font-family="Inter, Segoe UI, Arial, sans-serif" font-size="12" fill="#64748b">Insight: Q4 months dominate the sales trend, with December recording the highest sales total.</text>
</svg>